# xmcd
#
# Track frame offsets:
#	150
#	9895
#	28922
#	49260
#	66512
#	76782
#	94002
#	103885
#	120495
#	133777
#	149602
#	167317
#	183642
#	193267
#
# Disc length: 2763 seconds
#
# Revision: 2
# Processed by: cddbd v1.5.2PL0 Copyright (c) Steve Scherf et al.
# Submitted via: audiograbber 1.83.01
#
DISCID=c40ac90e
DTITLE=Various Artist - The Country Show Vol 3
DYEAR=1982
DGENRE=Country
TTITLE0=Kikki - Cowboy Yoddle Song
TTITLE1=Mats Rådberg - In My Dreams (Theme From ''Klippet'')
TTITLE2=Alf Robertson - Balladen Om Nisse Karlsson (Coward of The County)
TTITLE3=Elisabeth Andreasson - Together Again
TTITLE4=Rankarna - (Beautiful) Morning Glory
TTITLE5=Bjøro Håland - Back Home Again
TTITLE6=Bente Lind - Teach Me To Cheat
TTITLE7=Chips - Someone Needs Somebodys Love
TTITLE8=Alf Robertson - Skomakare Anton
TTITLE9=Kikki - Forget Me Not
TTITLE10=Mats Rådberg - Who Shot J. R. Ewing
TTITLE11=Ann-Louise Hansson - Don't Darken My Doorstep
TTITLE12=Roland Cedermark - Roses Are Red
TTITLE13=Carina Wessman - Crying In The Rain
EXTD=P and C 1982 M-Records MLPCD 1521
EXTT0=
EXTT1=
EXTT2=
EXTT3=
EXTT4=
EXTT5=
EXTT6=
EXTT7=
EXTT8=
EXTT9=
EXTT10=
EXTT11=
EXTT12=
EXTT13=
PLAYORDER=
